<svg xmlns="http://www.w3.org/2000/svg" x="0px" y="0px"
width="24" height="24"
viewBox="0 0 172 172"
style=" fill:#000000;"><g fill="none" fill-rule="nonzero" stroke="none" stroke-width="1" stroke-linecap="butt" stroke-linejoin="miter" stroke-miterlimit="10" stroke-dasharray="" stroke-dashoffset="0" font-family="none" font-weight="none" font-size="none" text-anchor="none" style="mix-blend-mode: normal"><path d="M0,172v-172h172v172z" fill="none"></path><g fill="#ffffff"><path d="M82.41667,14.33333c-18.79658,0 -37.18466,6.95507 -50.42562,23.00472c-13.24096,16.04965 -21.24105,40.67253 -21.24105,75.53695v17.91667c0,10.82086 8.88748,19.70833 19.70833,19.70833h33.61474c6.55361,4.49226 13.96874,7.16667 21.92692,7.16667c7.95818,0 15.37331,-2.67441 21.92692,-7.16667h33.61474c10.82086,0 19.70833,-8.88748 19.70833,-19.70833v-17.91667c0,-67.6437 -32.41997,-88.11452 -51.80436,-89.33838c-1.08468,-1.10437 -1.83911,-2.20139 -5.15804,-4.04525c-4.77003,-2.65001 -12.01677,-5.15804 -21.87093,-5.15804zM82.41667,25.08333c8.0625,0 13.35743,1.97114 16.6499,3.80029c3.29248,1.82915 4.23421,3.14242 4.23421,3.14242c1.02085,1.27492 2.56596,2.01657 4.19922,2.01563c11.53789,0 43,12.49018 43,78.83333v17.91667c0,5.01031 -3.94802,8.95833 -8.95833,8.95833h-22.22786c0.52437,-0.65914 1.08036,-1.28005 1.5817,-1.96663c8.74237,-11.97248 14.27775,-28.14167 15.26416,-46.11442c0.00501,-0.0979 0.00735,-0.19592 0.007,-0.29394c0,-17.71759 -8.36937,-28.7381 -16.6639,-34.44059c-8.29453,-5.70249 -16.71289,-6.72575 -16.71289,-6.72575c-0.1765,-0.02279 -0.35402,-0.03681 -0.5319,-0.04199c-1.36154,-0.03276 -2.68477,0.4525 -3.70231,1.35775c-6.65874,5.91889 -18.41012,9.54966 -28.4637,11.2609c-10.05359,1.71125 -18.13363,1.71468 -18.13363,1.71468c-1.93842,-0.02741 -3.74144,0.99102 -4.71865,2.66532c-0.97721,1.6743 -0.97721,3.74507 0,5.41937c0.97721,1.6743 2.78023,2.69273 4.71865,2.66532c0,0 8.9408,0.00343 19.93929,-1.86865c10.11737,-1.72211 22.07778,-5.03939 31.31918,-12.07975c1.89033,0.38921 5.58812,1.32449 10.1971,4.49316c6.01328,4.13413 11.93168,11.01244 11.98177,25.41927c-0.90609,16.04971 -5.92324,30.29253 -13.17855,40.22852c-2.65392,3.63449 -5.5642,6.65849 -8.65739,9.05631c-0.29348,0.17173 -0.57,0.37092 -0.82585,0.59489c-5.17105,3.77916 -10.83132,5.82292 -16.73389,5.82292c-5.75687,0 -11.28148,-1.95665 -16.34896,-5.55697c-0.41141,-0.42028 -0.889,-0.7702 -1.41374,-1.03581c-3.01561,-2.3723 -5.85993,-5.32824 -8.45443,-8.88135c-7.27692,-9.96558 -12.32246,-24.25316 -13.20654,-40.36149c-0.10466,-1.91807 -1.22477,-3.63456 -2.93831,-4.50274c-1.71354,-0.86818 -3.76011,-0.75611 -5.36861,0.29398c-1.6085,1.05009 -2.53449,2.87862 -2.42909,4.79665c0.98641,17.97275 6.52179,34.14194 15.26416,46.11442c0.50134,0.68658 1.05733,1.30749 1.5817,1.96663h-22.22786c-5.01031,0 -8.95833,-3.94802 -8.95833,-8.95833v-17.91667c0,-33.21892 7.6364,-55.17937 18.78451,-68.69222c11.1481,-13.51285 25.90165,-19.09945 42.13216,-19.09945zM68.08333,93.16667c-3.95804,0 -7.16667,3.20863 -7.16667,7.16667c0,3.95804 3.20863,7.16667 7.16667,7.16667c3.95804,0 7.16667,-3.20863 7.16667,-7.16667c0,-3.95804 -3.20863,-7.16667 -7.16667,-7.16667zM103.91667,93.16667c-3.95804,0 -7.16667,3.20863 -7.16667,7.16667c0,3.95804 3.20863,7.16667 7.16667,7.16667c3.95804,0 7.16667,-3.20863 7.16667,-7.16667c0,-3.95804 -3.20863,-7.16667 -7.16667,-7.16667z"></path></g></g></svg>